<svg version="1.1" id="Layer_1" xmlns="http://www.w3.org/2000/svg" xmlns:xlink="http://www.w3.org/1999/xlink" x="0px" y="0px"
	 width="100%" viewBox="0 0 128 128" enable-background="new 0 0 128 128" xml:space="preserve">
<path fill="#020201" opacity="1.000000" stroke="none" 
	d="
M129.000000,55.000000 
	C129.000000,79.999992 129.000000,104.499992 129.000000,129.000000 
	C86.333344,129.000000 43.666683,129.000000 1.000018,129.000000 
	C1.000012,86.333344 1.000012,43.666695 1.000006,1.000030 
	C43.666645,1.000020 86.333290,1.000020 128.999969,1.000010 
	C129.000000,18.833334 129.000000,36.666668 129.000000,55.000000 
M17.710857,100.759613 
	C36.307758,124.961411 65.970932,128.646851 81.747131,119.237968 
	C70.134232,115.883255 59.594299,110.696709 50.235954,103.258980 
	C46.830841,100.552704 45.311279,97.005043 46.560940,92.646362 
	C47.794083,88.345268 50.831944,85.488983 55.145798,85.514984 
	C58.042099,85.532417 61.325127,86.870880 63.746922,88.588577 
	C73.298744,95.363396 83.709915,100.036934 95.277786,101.507721 
	C98.911118,101.969681 103.710594,101.468384 106.367950,99.370598 
	C109.881203,96.597145 111.812653,91.819931 113.926270,88.650383 
	C102.519981,87.047928 91.517021,85.822952 80.648697,83.854645 
	C74.154373,82.678497 71.301056,77.640648 72.931839,72.188560 
	C74.457443,67.088066 79.018364,65.655373 85.494499,66.569031 
	C94.819489,67.884621 104.271744,68.411819 113.689056,68.907372 
	C117.859482,69.126839 121.358673,66.912231 122.454353,62.800076 
	C123.524086,58.785305 123.612038,54.508942 124.105301,50.553429 
	C116.271652,52.143906 109.172729,53.895012 101.971985,54.953304 
	C95.738174,55.869480 91.727737,52.985661 91.185387,48.126102 
	C90.658203,43.402309 94.249619,40.078827 100.399574,39.087708 
	C105.144592,38.323006 109.919571,37.439251 114.496262,36.014343 
	C119.876350,34.339298 121.432480,30.036816 120.519081,24.581215 
	C118.846931,14.593639 112.271286,10.568370 103.251572,8.931012 
	C97.634483,7.911337 93.719490,9.851571 92.038124,15.410027 
	C90.407402,20.801043 89.283203,26.363571 88.233719,31.907034 
	C87.151405,37.623848 83.796761,40.778732 78.989372,40.086239 
	C74.234718,39.401340 71.422951,35.183613 72.478424,29.585554 
	C73.942513,21.820282 75.748497,14.119471 77.456749,6.164492 
	C72.988167,6.028691 69.912109,8.156125 68.000977,12.397328 
	C62.816719,23.902258 61.243481,35.957497 61.983849,48.469074 
	C62.342361,54.527657 58.892250,58.592026 53.729088,58.941654 
	C48.370892,59.304493 44.001015,55.417152 44.167809,49.164253 
	C44.424084,39.556732 45.414810,29.963280 46.289749,20.381742 
	C46.503376,18.042328 47.478111,15.772416 48.192421,13.140749 
	C40.767006,15.516159 35.909954,19.004198 34.945927,26.957119 
	C33.493526,38.938953 34.429207,50.517063 38.342899,61.901146 
	C38.987339,63.775688 39.723782,65.702454 39.872700,67.646820 
	C40.232460,72.344147 36.623478,76.780502 31.948553,77.803246 
	C27.362432,78.806564 22.332439,76.509872 20.805506,71.545715 
	C17.847847,61.930180 15.587881,52.100037 13.080881,42.519722 
	C9.076874,48.207157 7.371986,55.358757 6.085939,62.723648 
	C5.758836,64.596893 4.001969,66.250053 3.789724,68.105850 
	C3.556936,70.141289 4.196777,72.336906 4.764171,74.377129 
	C5.034236,75.348228 6.712409,76.743225 6.577941,76.893257 
	C1.998616,82.002487 5.989419,84.290123 9.631051,86.822601 
	C10.218763,87.231308 10.301861,88.316292 10.716186,89.031952 
	C12.878537,92.766991 15.072528,96.483719 17.710857,100.759613 
z"/>
<path fill="#D2E677" opacity="1.000000" stroke="none" 
	d="
M17.483185,100.483215 
	C15.072528,96.483719 12.878537,92.766991 10.716186,89.031952 
	C10.301861,88.316292 10.218763,87.231308 9.631051,86.822601 
	C5.989419,84.290123 1.998616,82.002487 6.577941,76.893257 
	C6.712409,76.743225 5.034236,75.348228 4.764171,74.377129 
	C4.196777,72.336906 3.556936,70.141289 3.789724,68.105850 
	C4.001969,66.250053 5.758836,64.596893 6.085939,62.723648 
	C7.371986,55.358757 9.076874,48.207157 13.080881,42.519722 
	C15.587881,52.100037 17.847847,61.930180 20.805506,71.545715 
	C22.332439,76.509872 27.362432,78.806564 31.948553,77.803246 
	C36.623478,76.780502 40.232460,72.344147 39.872700,67.646820 
	C39.723782,65.702454 38.987339,63.775688 38.342899,61.901146 
	C34.429207,50.517063 33.493526,38.938953 34.945927,26.957119 
	C35.909954,19.004198 40.767006,15.516159 48.192421,13.140749 
	C47.478111,15.772416 46.503376,18.042328 46.289749,20.381742 
	C45.414810,29.963280 44.424084,39.556732 44.167809,49.164253 
	C44.001015,55.417152 48.370892,59.304493 53.729088,58.941654 
	C58.892250,58.592026 62.342361,54.527657 61.983849,48.469074 
	C61.243481,35.957497 62.816719,23.902258 68.000977,12.397328 
	C69.912109,8.156125 72.988167,6.028691 77.456749,6.164492 
	C75.748497,14.119471 73.942513,21.820282 72.478424,29.585554 
	C71.422951,35.183613 74.234718,39.401340 78.989372,40.086239 
	C83.796761,40.778732 87.151405,37.623848 88.233719,31.907034 
	C89.283203,26.363571 90.407402,20.801043 92.038124,15.410027 
	C93.719490,9.851571 97.634483,7.911337 103.251572,8.931012 
	C112.271286,10.568370 118.846931,14.593639 120.519081,24.581215 
	C121.432480,30.036816 119.876350,34.339298 114.496262,36.014343 
	C109.919571,37.439251 105.144592,38.323006 100.399574,39.087708 
	C94.249619,40.078827 90.658203,43.402309 91.185387,48.126102 
	C91.727737,52.985661 95.738174,55.869480 101.971985,54.953304 
	C109.172729,53.895012 116.271652,52.143906 124.105301,50.553429 
	C123.612038,54.508942 123.524086,58.785305 122.454353,62.800076 
	C121.358673,66.912231 117.859482,69.126839 113.689056,68.907372 
	C104.271744,68.411819 94.819489,67.884621 85.494499,66.569031 
	C79.018364,65.655373 74.457443,67.088066 72.931839,72.188560 
	C71.301056,77.640648 74.154373,82.678497 80.648697,83.854645 
	C91.517021,85.822952 102.519981,87.047928 113.926270,88.650383 
	C111.812653,91.819931 109.881203,96.597145 106.367950,99.370598 
	C103.710594,101.468384 98.911118,101.969681 95.277786,101.507721 
	C83.709915,100.036934 73.298744,95.363396 63.746922,88.588577 
	C61.325127,86.870880 58.042099,85.532417 55.145798,85.514984 
	C50.831944,85.488983 47.794083,88.345268 46.560940,92.646362 
	C45.311279,97.005043 46.830841,100.552704 50.235954,103.258980 
	C59.594299,110.696709 70.134232,115.883255 81.747131,119.237968 
	C65.970932,128.646851 36.307758,124.961411 17.483185,100.483215 
z"/>
</svg>