<?xml version="1.0" standalone="no"?>
<!DOCTYPE svg PUBLIC "-//W3C//DTD SVG 20010904//EN"
 "http://www.w3.org/TR/2001/REC-SVG-20010904/DTD/svg10.dtd">
<svg version="1.0" xmlns="http://www.w3.org/2000/svg"
 width="16.000000pt" height="16.000000pt" viewBox="0 0 16.000000 16.000000"
 preserveAspectRatio="xMidYMid meet">

<g transform="translate(0.000000,16.000000) scale(0.100000,-0.100000)"
fill="#000000" stroke="none">
<path d="M88 138 c3 -13 13 -28 21 -35 26 -20 33 -15 11 7 -11 11 -20 27 -20
35 0 8 -4 15 -9 15 -5 0 -7 -10 -3 -22z"/>
<path d="M49 143 c-1 -4 -1 -12 0 -17 1 -6 -1 -21 -4 -35 -5 -20 -8 -22 -16
-10 -5 9 -9 9 -9 2 0 -19 20 -26 26 -9 3 9 13 16 21 16 18 0 14 51 -4 58 -7 2
-14 0 -14 -5z m21 -23 c0 -11 -2 -20 -4 -20 -2 0 -6 9 -9 20 -3 11 -1 20 4 20
5 0 9 -9 9 -20z"/>
<path d="M140 120 c-10 -6 -11 -10 -2 -10 6 0 12 -7 12 -15 0 -10 -10 -15 -31
-15 -40 0 -34 -24 7 -27 l29 -2 -30 8 -30 8 30 4 c25 3 30 9 31 32 1 15 1 27
0 27 -1 0 -8 -5 -16 -10z"/>
<path d="M6 105 c-9 -26 -7 -32 5 -12 6 10 9 21 6 23 -2 3 -7 -2 -11 -11z"/>
<path d="M13 23 c-1 -14 2 -20 6 -15 4 7 12 8 21 2 20 -13 57 -13 65 0 4 6 -5
7 -23 4 -22 -5 -35 -1 -50 14 -19 19 -19 19 -19 -5z"/>
<path d="M61 43 c-1 -18 15 -24 40 -15 l23 9 -22 5 c-12 4 -20 2 -16 -3 3 -5
1 -9 -5 -9 -5 0 -12 6 -14 13 -4 9 -6 9 -6 0z"/>
</g>
</svg>
